<?xml version="1.0" encoding="utf-8"?>
<svg version="1.1" xmlns:xlink="http://www.w3.org/1999/xlink" width="18px" height="18px" xmlns="http://www.w3.org/2000/svg">
  <g transform="matrix(1 0 0 1 -227 -203 )">
    <path d="M 18 2  C 18 0.8999999999999999  17.1 0  16 0  L 2 0  C 0.8999999999999999 0  0 0.8999999999999999  0 2  L 0 16  C 0 17.1  0.8999999999999999 18  2 18  L 16 18  C 17.1 18  18 17.1  18 16  L 18 2  Z M 16 2  L 16 16  L 2 16  L 2 2  L 16 2  Z M 6.989999999999998 14  L 14.989999999999998 6  L 13.579999999999998 4.58  L 6.989999999999998 11.17  L 4.409999999999998 8.6  L 2.9899999999999984 10.01  L 6.989999999999998 14  Z " fill-rule="nonzero" fill="#ffffff" stroke="none" transform="matrix(1 0 0 1 227 203 )" />
  </g>
</svg>