<?xml version="1.0" encoding="utf-8"?>
<svg version="1.1" xmlns:xlink="http://www.w3.org/1999/xlink" width="38px" height="38px" xmlns="http://www.w3.org/2000/svg">
  <g transform="matrix(1 0 0 1 -1015 -20 )">
    <path d="M 18.99772128317569 0.24050091458158565  C 19.002510206599457 0.24050091458158565  19.007299129869047 0.2405027194258397  19.01208805191499 0.24050632911392406  C 29.453747296093635 0.24050632911392406  37.93714213004199 8.696634190261584  37.93714213004199 19.132264709814276  C 37.897191279776905 29.497880149496215  29.429436252281363 37.87987913289453  18.99772128317569 37.87987913289453  C 8.53769127002972 37.87987913289453  0.05816154275071182 29.45401731528185  0.05816154275071182 19.060190023738066  C 0.05816154275071182 8.666362732194258  8.53769127002972 0.24050091458158565  18.99772128317569 0.24050091458158565  Z M 5.144674895024804 28.40517764845915  C 5.144674895024804 24.393321532516936  11.343427917037776 21.167020476402925  19.01208805191499 21.167020476402925  C 26.654154472579197 21.167020476402925  32.85290749459218 24.393321532516936  32.852907494592195 28.40517764845915  C 32.85663669721382 28.585745182265228  32.84775078022864 28.766352211897875  32.826313780379174 28.945697185038185  C 34.860681281093825 26.096713382405525  35.95349281079016 22.68979711661855  35.95349281079016 19.19649815554453  C 35.95349281079016 9.89193971852685  28.36261433524666 2.349104777638693  18.998791194808472 2.349104777638693  C 9.634968054370297 2.349104777638693  2.044089578826803 9.89193971852685  2.044089578826803 19.19649815554453  C 2.044089578826803 22.68979711661855  3.136901108523159 26.096713382405525  5.171268609237812 28.945697185038185  C 5.149831609388348 28.766352211897875  5.140945692403163 28.585745182265228  5.144674895024804 28.40517764845915  Z M 19.01208805191499 4.886572034642215  L 19.01208805191499 4.874560489384915  C 19.02014329474717 4.8745334318959594  19.02819857783937 4.8745199031225335  19.036253866695088 4.8745199031225335  C 22.984467901526934 4.8745199031225335  26.185127769227233 8.05492242988802  26.185127769227233 11.97814776829687  C 26.185127769227233 15.901373106705732  22.984467901526934 19.081775633471217  19.036253866695088 19.081775633471217  C 15.092775631173925 19.081775633471217  11.894080823051503 15.908713772580738  11.887390253212866 11.990199899816535  C 11.887350844344288 11.980590156282316  11.887331139848637 11.970980342935599  11.887331139848637 11.961370519614851  C 11.887331139848637 8.054066285048027  15.075002195099689 4.886570363058084  19.007193717784762 4.886570363058084  C 19.008825162648012 4.886570363058084  19.01045660743722 4.886570920252818  19.01208805191499 4.886572034642215  Z " fill-rule="nonzero" fill="#818994" stroke="none" transform="matrix(1 0 0 1 1015 20 )" />
  </g>
</svg>