<?xml version="1.0" encoding="utf-8"?>
<svg version="1.1" xmlns:xlink="http://www.w3.org/1999/xlink" width="25px" height="26px" xmlns="http://www.w3.org/2000/svg">
  <g transform="matrix(1 0 0 1 -760 -26 )">
    <path d="M 12.5 24.839285714285715  C 12.660256410256412 24.839285714285715  12.740384615384617 24.761904761904763  12.740384615384615 24.607142857142858  C 12.740384615384617 24.452380952380953  12.660256410256412 24.375  12.5 24.375  C 11.909054487179487 24.375  11.400741185897438 24.16945684523809  10.975060096153847 23.758370535714285  C 10.549379006410257 23.347284226190474  10.336538461538462 22.85639880952381  10.336538461538462 22.28571428571429  C 10.336538461538462 22.13095238095238  10.256410256410257 22.053571428571427  10.096153846153847 22.053571428571427  C 9.935897435897436 22.053571428571427  9.85576923076923 22.13095238095238  9.85576923076923 22.28571428571429  C 9.85576923076923 22.991815476190474  10.113681891025642 23.593936011904763  10.629507211538462 24.092075892857142  C 11.145332532051283 24.590215773809526  11.76883012820513 24.839285714285715  12.5 24.839285714285715  Z M 6.730769230769231 8.357142857142856  C 6.730769230769231 13.502976190476192  5.398637820512821 17.52678571428571  2.734375 20  L 22.265625 20  C 19.601362179487182 17.52678571428571  18.269230769230766 13.502976190476192  18.269230769230766 8.357142857142856  C 18.269230769230766 7.863839285714285  18.14903846153846 7.356026785714285  17.908653846153847 6.833705357142856  C 17.668269230769234 6.311383928571428  17.322716346153847 5.813244047619045  16.871995192307693 5.339285714285715  C 16.42127403846154 4.8653273809523805  15.812800480769232 4.476004464285715  15.046574519230768 4.171316964285715  C 14.280348557692307 3.8666294642857153  13.431490384615385 3.7142857142857153  12.5 3.7142857142857153  C 11.568509615384617 3.7142857142857153  10.719651442307693 3.8666294642857153  9.95342548076923 4.171316964285715  C 9.18719951923077 4.476004464285715  8.578725961538462 4.8653273809523805  8.128004807692307 5.339285714285715  C 7.677283653846153 5.813244047619045  7.331730769230769 6.311383928571428  7.091346153846153 6.833705357142856  C 6.850961538461539 7.356026785714285  6.730769230769231 7.863839285714285  6.730769230769231 8.357142857142856  Z M 23.6328125 19.15178571428571  C 24.043469551282055 19.59672619047619  24.49919871794872 20.022321428571427  25 20.428571428571427  C 25.000000000000007 20.93154761904762  24.809695512820515 21.366815476190478  24.42908653846154 21.734375  C 24.048477564102566 22.101934523809522  23.597756410256412 22.28571428571429  23.076923076923077 22.28571428571429  L 16.346153846153847 22.28571428571429  C 16.346153846153847 23.31101190476191  15.970552884615385 24.186383928571427  15.219350961538462 24.911830357142858  C 14.468149038461538 25.637276785714285  13.561698717948719 26  12.5 26  C 11.438301282051283 26  10.531850961538462 25.637276785714285  9.780649038461538 24.911830357142858  C 9.029447115384617 24.186383928571427  8.653846153846153 23.31101190476191  8.653846153846153 22.28571428571429  L 1.9230769230769231 22.28571428571429  C 1.4022435897435899 22.28571428571429  0.951522435897436 22.101934523809522  0.5709134615384615 21.734375  C 0.19030448717948725 21.366815476190478  0 20.93154761904762  0 20.428571428571427  C 0.5008012820512822 20.022321428571427  0.956530448717949 19.59672619047619  1.3671875 19.15178571428571  C 1.7778445512820515 18.706845238095237  2.203525641025641 18.12890625  2.644230769230769 17.41796875  C 3.084935897435898 16.70703125  3.458032852564103 15.940476190476188  3.7635216346153846 15.118303571428571  C 4.069010416666667 14.296130952380953  4.319411057692308 13.299851190476192  4.514723557692308 12.129464285714285  C 4.710036057692308 10.95907738095238  4.807692307692308 9.701636904761902  4.807692307692308 8.357142857142856  C 4.807692307692308 6.886904761904761  5.393629807692308 5.520647321428572  6.5655048076923075 4.258370535714285  C 7.7373798076923075 2.99609375  9.274839743589745 2.229538690476189  11.177884615384617 1.9587053571428563  C 11.09775641025641 1.774925595238093  11.057692307692307 1.586309523809524  11.057692307692307 1.3928571428571437  C 11.057692307692307 1.0059523809523803  11.197916666666668 0.6770833333333324  11.478365384615383 0.40625  C 11.758814102564104 0.13541666666666763  12.099358974358974 0  12.5 0  C 12.900641025641027 0  13.2411858974359 0.13541666666666763  13.521634615384615 0.40625  C 13.802083333333334 0.6770833333333324  13.942307692307693 1.0059523809523803  13.942307692307693 1.3928571428571437  C 13.942307692307693 1.586309523809524  13.902243589743591 1.774925595238093  13.822115384615385 1.9587053571428563  C 15.725160256410259 2.229538690476189  17.262620192307693 2.99609375  18.434495192307693 4.258370535714285  C 19.606370192307693 5.520647321428572  20.192307692307693 6.886904761904761  20.192307692307693 8.357142857142856  C 20.192307692307693 9.701636904761902  20.289963942307693 10.95907738095238  20.485276442307693 12.129464285714285  C 20.680588942307693 13.299851190476192  20.930989583333336 14.296130952380953  21.236478365384613 15.118303571428571  C 21.5419671474359 15.940476190476188  21.915064102564102 16.70703125  22.355769230769234 17.41796875  C 22.79647435897436 18.12890625  23.222155448717956 18.706845238095237  23.6328125 19.15178571428571  Z " fill-rule="nonzero" fill="#818994" stroke="none" transform="matrix(1 0 0 1 760 26 )" />
  </g>
</svg>