<?xml version="1.0" encoding="utf-8"?>
<svg version="1.1" xmlns:xlink="http://www.w3.org/1999/xlink" width="26px" height="26px" xmlns="http://www.w3.org/2000/svg">
  <g transform="matrix(1 0 0 1 -809 -26 )">
    <path d="M 14.743489583333332 17.756510416666664  C 14.845052083333332 17.858072916666664  14.895833333333332 17.98784722222222  14.895833333333332 18.145833333333336  L 14.895833333333332 20.854166666666668  C 14.895833333333332 21.01215277777778  14.845052083333332 21.141927083333332  14.743489583333332 21.243489583333332  C 14.641927083333332 21.345052083333332  14.512152777777777 21.395833333333332  14.354166666666668 21.395833333333332  L 11.645833333333334 21.395833333333332  C 11.487847222222223 21.395833333333332  11.358072916666666 21.345052083333332  11.256510416666666 21.243489583333332  C 11.154947916666666 21.141927083333332  11.104166666666666 21.01215277777778  11.104166666666666 20.854166666666668  L 11.104166666666666 18.145833333333336  C 11.104166666666666 17.98784722222222  11.154947916666666 17.858072916666664  11.256510416666666 17.756510416666664  C 11.358072916666666 17.654947916666664  11.487847222222223 17.604166666666664  11.645833333333334 17.604166666666664  L 14.354166666666668 17.604166666666664  C 14.512152777777777 17.604166666666664  14.641927083333332 17.654947916666664  14.743489583333332 17.756510416666664  Z M 17.375651041666668 6.119140625  C 18.611328125 7.1291232638888875  19.229166666666668 8.33940972222222  19.229166666666668 9.75  C 19.229166666666668 10.31423611111111  19.14453125 10.82204861111111  18.975260416666668 11.2734375  C 18.805989583333332 11.724826388888888  18.54926215277778 12.114149305555555  18.205078125 12.44140625  C 17.86089409722222 12.768663194444443  17.567491319444446 13.016927083333336  17.324869791666668 13.186197916666664  C 17.08224826388889 13.35546875  16.74652777777778 13.55859375  16.317708333333332 13.795572916666664  C 15.956597222222223 13.998697916666664  15.694227430555557 14.156684027777775  15.530598958333332 14.26953125  C 15.366970486111112 14.38237847222222  15.220269097222223 14.51779513888889  15.090494791666668 14.67578125  C 14.960720486111112 14.83376736111111  14.895833333333332 14.997395833333336  14.895833333333332 15.166666666666664  L 14.895833333333332 15.708333333333336  C 14.895833333333332 15.866319444444445  14.845052083333332 15.99609375  14.743489583333332 16.09765625  C 14.641927083333332 16.19921875  14.512152777777777 16.25  14.354166666666668 16.25  L 11.645833333333334 16.25  C 11.487847222222223 16.25  11.358072916666666 16.19921875  11.256510416666666 16.09765625  C 11.154947916666666 15.99609375  11.104166666666666 15.866319444444445  11.104166666666666 15.708333333333336  L 11.104166666666666 14.557291666666664  C 11.104166666666666 14.16232638888889  11.163411458333334 13.79839409722222  11.281901041666666 13.465494791666664  C 11.400390625 13.13259548611111  11.535807291666666 12.864583333333332  11.688151041666666 12.661458333333332  C 11.840494791666666 12.458333333333332  12.060546875 12.258029513888888  12.348307291666666 12.060546875  C 12.636067708333334 11.86306423611111  12.86740451388889 11.719184027777777  13.042317708333332 11.62890625  C 13.21723090277778 11.538628472222223  13.468315972222223 11.420138888888888  13.795572916666668 11.2734375  C 14.393663194444445 10.991319444444443  14.816840277777777 10.748697916666668  15.065104166666668 10.545572916666668  C 15.313368055555557 10.342447916666668  15.437500000000004 10.065972222222223  15.4375 9.716145833333332  C 15.437500000000004 9.242187499999996  15.192057291666668 8.838758680555552  14.701171875 8.505859375  C 14.210286458333336 8.172960069444443  13.671440972222223 8.006510416666668  13.084635416666668 8.006510416666668  C 12.452690972222223 8.006510416666668  11.916666666666666 8.158854166666668  11.4765625 8.463541666666668  C 11.149305555555557 8.68923611111111  10.697916666666666 9.157552083333332  10.122395833333334 9.868489583333332  C 10.020833333333334 10.003906249999996  9.879774305555557 10.071614583333332  9.69921875 10.071614583333332  C 9.575086805555557 10.071614583333332  9.467881944444445 10.037760416666664  9.377604166666666 9.970052083333332  L 7.549479166666666 8.58203125  C 7.436631944444445 8.503038194444443  7.368923611111112 8.39019097222222  7.346354166666666 8.243489583333332  C 7.323784722222224 8.096788194444443  7.351996527777779 7.9670138888888875  7.430989583333334 7.854166666666668  C 8.807725694444445 5.6875  10.776909722222223 4.604166666666668  13.338541666666668 4.604166666666668  C 14.794270833333332 4.604166666666668  16.139973958333332 5.10915798611111  17.375651041666668 6.119140625  Z M 17.206380208333332 3.029947916666668  C 15.869140625 2.454427083333332  14.46701388888889 2.166666666666668  13 2.166666666666668  C 11.53298611111111 2.166666666666668  10.130859375 2.454427083333332  8.793619791666666 3.029947916666668  C 7.456380208333334 3.60546875  6.305338541666667 4.375651041666668  5.340494791666667 5.340494791666668  C 4.375651041666667 6.305338541666668  3.60546875 7.456380208333332  3.0299479166666665 8.793619791666668  C 2.4544270833333335 10.130859375  2.1666666666666665 11.53298611111111  2.1666666666666665 13  C 2.1666666666666665 14.46701388888889  2.4544270833333335 15.869140625  3.0299479166666665 17.206380208333336  C 3.60546875 18.543619791666664  4.375651041666667 19.694661458333332  5.340494791666667 20.659505208333332  C 6.305338541666667 21.624348958333332  7.456380208333334 22.39453125  8.793619791666666 22.970052083333332  C 10.130859375 23.545572916666668  11.53298611111111 23.833333333333332  13 23.833333333333332  C 14.46701388888889 23.833333333333332  15.869140625 23.545572916666668  17.206380208333332 22.970052083333332  C 18.543619791666668 22.39453125  19.694661458333332 21.624348958333332  20.659505208333332 20.659505208333332  C 21.624348958333332 19.694661458333332  22.39453125 18.543619791666664  22.970052083333332 17.206380208333336  C 23.545572916666668 15.869140625  23.833333333333332 14.46701388888889  23.833333333333332 13  C 23.833333333333332 11.53298611111111  23.545572916666668 10.130859375  22.970052083333332 8.793619791666668  C 22.39453125 7.456380208333332  21.624348958333332 6.305338541666668  20.659505208333332 5.340494791666668  C 19.694661458333332 4.375651041666668  18.543619791666668 3.60546875  17.206380208333332 3.029947916666668  Z M 24.256510416666668 6.474609375  C 25.418836805555554 8.46636284722222  26 10.641493055555552  26 13  C 26 15.358506944444445  25.418836805555554 17.533637152777775  24.256510416666668 19.525390625  C 23.09418402777778 21.51714409722222  21.51714409722222 23.09418402777778  19.525390625 24.256510416666668  C 17.53363715277778 25.418836805555557  15.358506944444445 26  13 26  C 10.641493055555557 26  8.466362847222223 25.418836805555557  6.474609375 24.256510416666668  C 4.482855902777779 23.09418402777778  2.9058159722222223 21.51714409722222  1.7434895833333335 19.525390625  C 0.5811631944444444 17.533637152777775  0 15.358506944444445  0 13  C 0 10.641493055555552  0.5811631944444444 8.46636284722222  1.7434895833333335 6.474609375  C 2.9058159722222223 4.482855902777778  4.482855902777779 2.9058159722222197  6.474609375 1.7434895833333324  C 8.466362847222223 0.5811631944444422  10.641493055555557 0  13 0  C 15.358506944444445 0  17.53363715277778 0.5811631944444422  19.525390625 1.7434895833333324  C 21.51714409722222 2.9058159722222197  23.09418402777778 4.482855902777778  24.256510416666668 6.474609375  Z " fill-rule="nonzero" fill="#818994" stroke="none" transform="matrix(1 0 0 1 809 26 )" />
  </g>
</svg>