<?xml version="1.0" encoding="utf-8"?>
<svg version="1.1" xmlns:xlink="http://www.w3.org/1999/xlink" width="17px" height="17px" xmlns="http://www.w3.org/2000/svg">
  <g transform="matrix(1 0 0 1 -228 -161 )">
    <path d="M 15.454545454545453 4.636363636363636  L 17 4.636363636363636  L 17 0  L 12.363636363636363 0  L 12.363636363636363 1.5454545454545454  L 4.636363636363636 1.5454545454545454  L 4.636363636363636 0  L 0 0  L 0 4.636363636363636  L 1.5454545454545454 4.636363636363636  L 1.5454545454545454 12.363636363636363  L 0 12.363636363636363  L 0 17  L 4.636363636363636 17  L 4.636363636363636 15.454545454545453  L 12.363636363636363 15.454545454545453  L 12.363636363636363 17  L 17 17  L 17 12.363636363636363  L 15.454545454545453 12.363636363636363  L 15.454545454545453 4.636363636363636  Z M 1.5454545454545454 3.090909090909091  L 1.5454545454545454 1.5454545454545454  L 3.090909090909091 1.5454545454545454  L 3.090909090909091 3.090909090909091  L 1.5454545454545454 3.090909090909091  Z M 3.090909090909091 13.90909090909091  L 3.090909090909091 15.454545454545453  L 1.5454545454545454 15.454545454545453  L 1.5454545454545454 13.90909090909091  L 3.090909090909091 13.90909090909091  Z M 12.363636363636363 12.363636363636363  L 12.363636363636363 13.90909090909091  L 4.636363636363636 13.90909090909091  L 4.636363636363636 12.363636363636363  L 3.090909090909091 12.363636363636363  L 3.090909090909091 4.636363636363636  L 4.636363636363636 4.636363636363636  L 4.636363636363636 3.090909090909091  L 12.363636363636363 3.090909090909091  L 12.363636363636363 4.636363636363636  L 13.90909090909091 4.636363636363636  L 13.90909090909091 12.363636363636363  L 12.363636363636363 12.363636363636363  Z M 15.454545454545453 13.90909090909091  L 15.454545454545453 15.454545454545453  L 13.90909090909091 15.454545454545453  L 13.90909090909091 13.90909090909091  L 15.454545454545453 13.90909090909091  Z M 15.454545454545453 3.090909090909091  L 13.90909090909091 3.090909090909091  L 13.90909090909091 1.5454545454545454  L 15.454545454545453 1.5454545454545454  L 15.454545454545453 3.090909090909091  Z M 10.408636363636367 11.59090909090909  L 9.836818181818181 10.045454545454547  L 7.14 10.045454545454547  L 6.57590909090909 11.59090909090909  L 5.324090909090909 11.59090909090909  L 7.951363636363636 4.636363636363636  L 9.033181818181818 4.636363636363636  L 11.668181818181818 11.59090909090909  L 10.408636363636367 11.59090909090909  Z M 8.5 6.112272727272727  L 7.487727272727273 9.071818181818182  L 9.504545454545454 9.071818181818182  L 8.5 6.112272727272727  Z " fill-rule="nonzero" fill="#ffffff" stroke="none" transform="matrix(1 0 0 1 228 161 )" />
  </g>
</svg>