<?xml version="1.0" encoding="utf-8"?>
<svg version="1.1" xmlns:xlink="http://www.w3.org/1999/xlink" width="62px" height="62px" xmlns="http://www.w3.org/2000/svg">
  <defs>
    <filter x="128px" y="-7px" width="62px" height="62px" filterUnits="userSpaceOnUse" id="filter89">
      <feOffset dx="3" dy="3" in="SourceAlpha" result="shadowOffsetInner" />
      <feGaussianBlur stdDeviation="5" in="shadowOffsetInner" result="shadowGaussian" />
      <feComposite in2="shadowGaussian" operator="atop" in="SourceAlpha" result="shadowComposite" />
      <feColorMatrix type="matrix" values="0 0 0 0 0  0 0 0 0 0  0 0 0 0 0  0 0 0 0.14901960784313725 0  " in="shadowComposite" />
    </filter>
    <g id="widget90">
      <path d="M 38.769230769230774 42  L 3.230769230769231 42  C 1.4215384615385154 42  0 40.57846153846161  0 38.769230769230774  L 0 3.230769230769231  C 0 1.421538461538393  1.4215384615385154 0  3.230769230769231 0  L 38.769230769230774 0  C 40.57846153846149 0  42 1.421538461538393  42 3.230769230769231  L 42 38.769230769230774  C 42 40.57846153846161  40.57846153846149 42  38.769230769230774 42  Z M 27.993689903846157 16.945763221153847  C 27.271534455128247 15.708283253205048  26.29171674679483 14.728465544871876  25.054236778846153 14.006310096153847  C 23.816756810897477 13.284154647435814  22.465344551282094 12.923076923076923  21 12.923076923076923  C 19.53465544871791 12.923076923076923  18.183243189102523 13.284154647435814  16.945763221153847 14.006310096153847  C 15.708283253205169 14.728465544871876  14.728465544871755 15.708283253205048  14.006310096153847 16.945763221153847  C 13.284154647435939 18.183243189102644  12.923076923076923 19.53465544871803  12.923076923076923 21  C 12.923076923076923 22.465344551281966  13.284154647435939 23.816756810897356  14.006310096153847 25.054236778846153  C 14.728465544871755 26.291716746794954  15.708283253205169 27.271534455128123  16.945763221153847 27.993689903846157  C 18.183243189102523 28.715845352564184  19.53465544871791 29.076923076923077  21 29.076923076923077  C 22.465344551282094 29.076923076923077  23.816756810897477 28.715845352564184  25.054236778846153 27.993689903846157  C 26.29171674679483 27.271534455128123  27.271534455128247 26.291716746794954  27.993689903846157 25.054236778846153  C 28.715845352564063 23.816756810897356  29.076923076923077 22.465344551281966  29.076923076923077 21  C 29.076923076923077 19.53465544871803  28.715845352564063 18.183243189102644  27.993689903846157 16.945763221153847  Z M 25.51171875 22.146334134615383  C 25.3785056089744 22.279547275641107  25.220753205128247 22.346153846153847  25.038461538461537 22.346153846153847  L 16.961538461538463 22.346153846153847  C 16.779246794871757 22.346153846153847  16.6214943910256 22.279547275641107  16.48828125 22.146334134615383  C 16.3550681089744 22.01312099358966  16.28846153846154 21.85536858974351  16.28846153846154 21.673076923076927  L 16.28846153846154 20.326923076923077  C 16.28846153846154 20.14463141025649  16.3550681089744 19.98687900641034  16.48828125 19.853665865384617  C 16.6214943910256 19.720452724358893  16.779246794871757 19.653846153846153  16.961538461538463 19.653846153846153  L 25.038461538461537 19.653846153846153  C 25.220753205128247 19.653846153846153  25.3785056089744 19.720452724358893  25.51171875 19.853665865384617  C 25.6449318910256 19.98687900641034  25.711538461538463 20.14463141025649  25.711538461538463 20.326923076923077  L 25.711538461538463 21.673076923076927  C 25.711538461538463 21.85536858974351  25.6449318910256 22.01312099358966  25.51171875 22.146334134615383  Z " fill-rule="nonzero" fill="#7f7f7f" stroke="none" transform="matrix(1 0 0 1 135 0 )" />
    </g>
  </defs>
  <g transform="matrix(1 0 0 1 -128 7 )">
    <use xlink:href="#widget90" filter="url(#filter89)" />
    <use xlink:href="#widget90" />
  </g>
</svg>